<?xml version="1.0" encoding="iso-8859-1"?>
<!-- Generator: Adobe Illustrator 16.0.0, SVG Export Plug-In . SVG Version: 6.00 Build 0)  -->
<!DOCTYPE svg PUBLIC "-//W3C//DTD SVG 1.1//EN" "http://www.w3.org/Graphics/SVG/1.1/DTD/svg11.dtd">
<svg version="1.1" id="Capa_1" xmlns="http://www.w3.org/2000/svg" xmlns:xlink="http://www.w3.org/1999/xlink" x="0px" y="0px"
	 width="196.602px" height="196.602px" viewBox="0 0 196.602 196.602" style="enable-background:new 0 0 196.602 196.602;"
	 xml:space="preserve">
<g>
	<g>
		<path d="M52.892,32.802c9.181,0,16.623-7.344,16.623-16.402c0-9.056-7.442-16.4-16.623-16.4c-9.177,0-16.62,7.345-16.62,16.4
			C36.273,25.458,43.715,32.802,52.892,32.802z"/>
		<path d="M112.964,87.741L90.173,71.323l-12.22-32.33c-0.98-2.591-3.57-3.808-6.218-3.808c-9.645,0-28.393,0-38.056,0
			c-2.338,0-4.681,0.885-5.87,3.064L10.542,69.88c-0.753,1.38-0.928,3.006-0.484,4.515l8.36,28.477
			c0.758,2.584,3.12,4.26,5.683,4.26c0.552,0,1.116-0.077,1.672-0.241c3.141-0.922,4.94-4.215,4.017-7.354l-7.695-26.119
			l10.864-19.944v133.84c0,4.909,4.003,8.89,8.913,8.89c4.91,0,8.912-3.979,8.912-8.89V120.17h4.229v67.142
			c0,4.909,4.004,8.89,8.913,8.89s8.912-3.979,8.912-8.89V58.833l6.912,18.352c0.413,1.088,1.121,2.032,2.065,2.711l24.231,17.464
			c1.047,0.755,2.256,1.118,3.456,1.118c1.838,0,3.651-0.856,4.811-2.463C116.223,93.359,115.62,89.655,112.964,87.741z"/>
		<path d="M128.605,5.537c-4.132,0-7.48,3.349-7.48,7.479c0,4.132,3.349,7.48,7.48,7.48h2.479v28.828h-2.479
			c-4.132,0-7.48,3.349-7.48,7.48s3.349,7.479,7.48,7.479h2.479v29.829h-2.501c-4.118,0-7.457,3.339-7.457,7.457
			c0,4.118,3.339,7.457,7.457,7.457h2.501V137.9h-2.502c-4.118,0-7.457,3.338-7.457,7.457c0,4.117,3.338,7.456,7.457,7.456h2.502
			v28.875h-2.502c-4.118,0-7.457,3.339-7.457,7.456c0,4.119,3.338,7.457,7.457,7.457h48.66c5.271,0,9.543-4.271,9.543-9.544V15.081
			c0-5.271-4.273-9.544-9.543-9.544H128.605z"/>
	</g>
</g>
<g>
</g>
<g>
</g>
<g>
</g>
<g>
</g>
<g>
</g>
<g>
</g>
<g>
</g>
<g>
</g>
<g>
</g>
<g>
</g>
<g>
</g>
<g>
</g>
<g>
</g>
<g>
</g>
<g>
</g>
</svg>
